<svg role="img" aria-label="Interac debit" viewBox="0 0 100 100" xmlns="http://www.w3.org/2000/svg" xmlns:c2pa="http://c2pa.org/manifest"><metadata><c2pa:manifest>AAAWgmp1bWIAAAAeanVtZGMycGEAEQAQgAAAqgA4m3EDYzJwYQAAABZcanVtYgAAAEdqdW1kYzJtYQARABCAAACqADibcQN1cm46YzJwYTo2NzIyNDIwMC1iYWZiLTRlOTAtOTBmNi01Y2IyNWM1Y2Y0YTMAAAADl2p1bWIAAAApanVtZGMyYXMAEQAQgAAAqgA4m3EDYzJwYS5hc3NlcnRpb25zAAAAALxqdW1iAAAARGp1bWRjYm9yABEAEIAAAKoAOJtxE2MycGEuaW5ncmVkaWVudC52MwAAAAAYYzJzaOCwg3tnQEJG7kbmHBywSNQAAABwY2JvcqNpZGM6Zm9ybWF0bWltYWdlL3N2Zyt4bWxqaW5zdGFuY2VJRHgseG1wOmlpZDoyY2VlMWI3Mi01NjlkLTQ3Y2QtODhkZC1hM2JkMmQxZGY1N2NscmVsYXRpb25zaGlwaHBhcmVudE9mAAAB4mp1bWIAAABBanVtZGNib3IAEQAQgAAAqgA4m3ETYzJwYS5hY3Rpb25zLnYyAAAAABhjMnNoFy3AmKMRxKDO7zaXD0zGyAAAAZljYm9yomdhY3Rpb25zgqJmYWN0aW9ua2MycGEub3BlbmVkanBhcmFtZXRlcnOha2luZ3JlZGllbnRzgaJjdXJseC1zZWxmI2p1bWJmPWMycGEuYXNzZXJ0aW9ucy9jMnBhLmluZ3JlZGllbnQudjNkaGFzaFgg6D266uU9uTWMkPqp+GWk1DdjrnU0qiMo2CJcMXxxJ2KkZmFjdGlvbngdY29tLmFudGhyb3BpYy5jbGF1ZGUucHJvdmlkZWRqcGFyYW1ldGVyc6F4H2NvbS5hbnRocm9waWMub3JpZ2luLWNvbmZpZGVuY2VndW5rbm93bmtkZXNjcmlwdGlvbnhmQ2xhdWRlIHByb3ZpZGVkIHRoaXMgZmlsZSBhdCB0aGUgcmVxdWVzdCBvZiBhIHVzZXIgYW5kIG1heSBoYXZlIGNyZWF0ZWQgb3IgbW9kaWZpZWQgdGhlIGZpbGUgY29udGVudHMubXNvZnR3YXJlQWdlbnShZG5hbWVmQ2xhdWRlcmFsbEFjdGlvbnNJbmNsdWRlZPUAAADIanVtYgAAAEBqdW1kY2JvcgARABCAAACqADibcRNjMnBhLmhhc2guZGF0YQAAAAAYYzJzaIOoFW33VSOHZgz/ScIRux4AAACAY2JvcqVjYWxnZnNoYTI1NmNwYWRNAAAAAAAAAAAAAAAAAGRoYXNoWCCvdqKf8rS5R9ncgWunVp7obwTfkZlJuS2mk5F/N3+IQ2RuYW1lbmp1bWJmIG1hbmlmZXN0amV4Y2x1c2lvbnOBomVzdGFydBijZmxlbmd0aBkeBAAAAj5qdW1iAAAAJ2p1bWRjMmNsABEAEIAAAKoAOJtxA2MycGEuY2xhaW0udjIAAAACD2Nib3KlY2FsZ2ZzaGEyNTZpc2lnbmF0dXJleE1zZWxmI2p1bWJmPS9jMnBhL3VybjpjMnBhOjY3MjI0MjAwLWJhZmItNGU5MC05MGY2LTVjYjI1YzVjZjRhMy9jMnBhLnNpZ25hdHVyZWppbnN0YW5jZUlEeCx4bXA6aWlkOjRhNjVlZTUxLTc3M2QtNDYyMi05MTFmLTRjOWU2ZjQ0NzM3ZHJjcmVhdGVkX2Fzc2VydGlvbnODomN1cmx4LXNlbGYjanVtYmY9YzJwYS5hc3NlcnRpb25zL2MycGEuaW5ncmVkaWVudC52M2RoYXNoWCDoPbrq5T25NYyQ+qn4ZaTUN2OudTSqIyjYIlwxfHEnYqJjdXJseCpzZWxmI2p1bWJmPWMycGEuYXNzZXJ0aW9ucy9jMnBhLmFjdGlvbnMudjJkaGFzaFggpvtTWf06CbO1mCtqSD7HjetmPv2X6BRbtVvaWpkMT4miY3VybHgpc2VsZiNqdW1iZj1jMnBhLmFzc2VydGlvbnMvYzJwYS5oYXNoLmRhdGFkaGFzaFggYsaVprDT3aSNWstTO6MnauwmzN+qAtwkHMZ4ClqjsQ10Y2xhaW1fZ2VuZXJhdG9yX2luZm+jZG5hbWVvQW50aHJvcGljIEZpbGVzZ3ZlcnNpb25lMS4wLjBrc3BlY1ZlcnNpb25lMi40LjAAABA4anVtYgAAAChqdW1kYzJjcwARABCAAACqADibcQNjMnBhLnNpZ25hdHVyZQAAABAIY2JvctKEWQISogEmGCFZAgowggIGMIIBjaADAgECAhRA5aAK7sI50L64g/oGQgU9Z1UTADAKBggqhkjOPQQDAzBJMRcwFQYDVQQKEw5BbnRocm9waWMsIFBCQzEuMCwGA1UEAxMlQW50aHJvcGljIENvbnRlbnQgQ3JlZGVudGlhbHMgUm9vdCBDQTAeFw0yNjA4MDcxODQzNTZaFw0yODA4MDYxOTQzNTZaMEQxFzAVBgNVBAoTDkFudGhyb3BpYywgUEJDMSkwJwYDVQQDEyBBbnRocm9waWMgQ2xhdWRlIENvbnRlbnQgU2lnbmluZzBZMBMGByqGSM49AgEGCCqGSM49AwEHA0IABJh6CmvLUBgFFNU0vUKlOVtE6djd17L5SuwX0LemFisBM3dkd/3cyjxFA3Qo5S46fX0/ihY0VZ7mfb9KF703t5OjWDBWMA4GA1UdDwEB/wQEAwIHgDAVBgNVHSUEDjAMBgorBgEEAYPoXgIBMAwGA1UdEwEB/wQCMAAwHwYDVR0jBBgwFoAUzlHiBIFOZFsj+OPEz5o+nMHXXMIwCgYIKoZIzj0EAwMDZwAwZAIwMXMdFJ4BetLLVY7ORuE9noqbbAZOZn/aArXyTwFAZfKrPzxF2vPoJNf1+UCdg1XGAjBwX1zd9WGqYkqmL5SFqw1QySjr1zJfpJM9+1rdDwSPLMOPOjKuiXjoU/pUUeG9RwmhY3BhZFkNngAAAAAAAAAAAAAAAAAAAAAAAAAAAAAAAAAAAAAAAAAAAAAAAAAAAAAAAAAAAAAAAAAAAAAAAAAAAAAAAAAAAAAAAAAAAAAAAAAAAAAAAAAAAAAAAAAAAAAAAAAAAAAAAAAAAAAAAAAAAAAAAAAAAAAAAAAAAAAAAAAAAAAAAAAAAAAAAAAAAAAAAAAAAAAAAAAAAAAAAAAAAAAAAAAAAAAAAAAAAAAAAAAAAAAAAAAAAAAAAAAAAAAAAAAAAAAAAAAAAAAAAAAAAAAAAAAAAAAAAAAAAAAAAAAAAAAAAAAAAAAAAAAAAAAAAAAAAAAAAAAAAAAAAAAAAAAAAAAAAAAAAAAAAAAAAAAAAAAAAAAAAAAAAAAAAAAAAAAAAAAAAAAAAAAAAAAAAAAAAAAAAAAAAAAAAAAAAAAAAAAAAAAAAAAAAAAAAAAAAAAAAAAAAAAAAAAAAAAAAAAAAAAAAAAAAAAAAAAAAAAAAAAAAAAAAAAAAAAAAAAAAAAAAAAAAAAAAAAAAAAAAAAAAAAAAAAAAAAAAAAAAAAAAAAAAAAAAAAAAAAAAAAAAAAAAAAAAAAAAAAAAAAAAAAAAAAAAAAAAAAAAAAAAAAAAAAAAAAAAAAAAAAAAAAAAAAAAAAAAAAAAAAAAAAAAAAAAAAAAAAAAAAAAAAAAAAAAAAAAAAAAAAAAAAAAAAAAAAAAAAAAAAAAAAAAAAAAAAAAAAAAAAAAAAAAAAAAAAAAAAAAAAAAAAAAAAAAAAAAAAAAAAAAAAAAAAAAAAAAAAAAAAAAAAAAAAAAAAAAAAAAAAAAAAAAAAAAAAAAAAAAAAAAAAAAAAAAAAAAAAAAAAAAAAAAAAAAAAAAAAAAAAAAAAAAAAAAAAAAAAAAAAAAAAAAAAAAAAAAAAAAAAAAAAAAAAAAAAAAAAAAAAAAAAAAAAAAAAAAAAAAAAAAAAAAAAAAAAAAAAAAAAAAAAAAAAAAAAAAAAAAAAAAAAAAAAAAAAAAAAAAAAAAAAAAAAAAAAAAAAAAAAAAAAAAAAAAAAAAAAAAAAAAAAAAAAAAAAAAAAAAAAAAAAAAAAAAAAAAAAAAAAAAAAAAAAAAAAAAAAAAAAAAAAAAAAAAAAAAAAAAAAAAAAAAAAAAAAAAAAAAAAAAAAAAAAAAAAAAAAAAAAAAAAAAAAAAAAAAAAAAAAAAAAAAAAAAAAAAAAAAAAAAAAAAAAAAAAAAAAAAAAAAAAAAAAAAAAAAAAAAAAAAAAAAAAAAAAAAAAAAAAAAAAAAAAAAAAAAAAAAAAAAAAAAAAAAAAAAAAAAAAAAAAAAAAAAAAAAAAAAAAAAAAAAAAAAAAAAAAAAAAAAAAAAAAAAAAAAAAAAAAAAAAAAAAAAAAAAAAAAAAAAAAAAAAAAAAAAAAAAAAAAAAAAAAAAAAAAAAAAAAAAAAAAAAAAAAAAAAAAAAAAAAAAAAAAAAAAAAAAAAAAAAAAAAAAAAAAAAAAAAAAAAAAAAAAAAAAAAAAAAAAAAAAAAAAAAAAAAAAAAAAAAAAAAAAAAAAAAAAAAAAAAAAAAAAAAAAAAAAAAAAAAAAAAAAAAAAAAAAAAAAAAAAAAAAAAAAAAAAAAAAAAAAAAAAAAAAAAAAAAAAAAAAAAAAAAAAAAAAAAAAAAAAAAAAAAAAAAAAAAAAAAAAAAAAAAAAAAAAAAAAAAAAAAAAAAAAAAAAAAAAAAAAAAAAAAAAAAAAAAAAAAAAAAAAAAAAAAAAAAAAAAAAAAAAAAAAAAAAAAAAAAAAAAAAAAAAAAAAAAAAAAAAAAAAAAAAAAAAAAAAAAAAAAAAAAAAAAAAAAAAAAAAAAAAAAAAAAAAAAAAAAAAAAAAAAAAAAAAAAAAAAAAAAAAAAAAAAAAAAAAAAAAAAAAAAAAAAAAAAAAAAAAAAAAAAAAAAAAAAAAAAAAAAAAAAAAAAAAAAAAAAAAAAAAAAAAAAAAAAAAAAAAAAAAAAAAAAAAAAAAAAAAAAAAAAAAAAAAAAAAAAAAAAAAAAAAAAAAAAAAAAAAAAAAAAAAAAAAAAAAAAAAAAAAAAAAAAAAAAAAAAAAAAAAAAAAAAAAAAAAAAAAAAAAAAAAAAAAAAAAAAAAAAAAAAAAAAAAAAAAAAAAAAAAAAAAAAAAAAAAAAAAAAAAAAAAAAAAAAAAAAAAAAAAAAAAAAAAAAAAAAAAAAAAAAAAAAAAAAAAAAAAAAAAAAAAAAAAAAAAAAAAAAAAAAAAAAAAAAAAAAAAAAAAAAAAAAAAAAAAAAAAAAAAAAAAAAAAAAAAAAAAAAAAAAAAAAAAAAAAAAAAAAAAAAAAAAAAAAAAAAAAAAAAAAAAAAAAAAAAAAAAAAAAAAAAAAAAAAAAAAAAAAAAAAAAAAAAAAAAAAAAAAAAAAAAAAAAAAAAAAAAAAAAAAAAAAAAAAAAAAAAAAAAAAAAAAAAAAAAAAAAAAAAAAAAAAAAAAAAAAAAAAAAAAAAAAAAAAAAAAAAAAAAAAAAAAAAAAAAAAAAAAAAAAAAAAAAAAAAAAAAAAAAAAAAAAAAAAAAAAAAAAAAAAAAAAAAAAAAAAAAAAAAAAAAAAAAAAAAAAAAAAAAAAAAAAAAAAAAAAAAAAAAAAAAAAAAAAAAAAAAAAAAAAAAAAAAAAAAAAAAAAAAAAAAAAAAAAAAAAAAAAAAAAAAAAAAAAAAAAAAAAAAAAAAAAAAAAAAAAAAAAAAAAAAAAAAAAAAAAAAAAAAAAAAAAAAAAAAAAAAAAAAAAAAAAAAAAAAAAAAAAAAAAAAAAAAAAAAAAAAAAAAAAAAAAAAAAAAAAAAAAAAAAAAAAAAAAAAAAAAAAAAAAAAAAAAAAAAAAAAAAAAAAAAAAAAAAAAAAAAAAAAAAAAAAAAAAAAAAAAAAAAAAAAAAAAAAAAAAAAAAAAAAAAAAAAAAAAAAAAAAAAAAAAAAAAAAAAAAAAAAAAAAAAAAAAAAAAAAAAAAAAAAAAAAAAAAAAAAAAAAAAAAAAAAAAAAAAAAAAAAAAAAAAAAAAAAAAAAAAAAAAAAAAAAAAAAAAAAAAAAAAAAAAAAAAAAAAAAAAAAAAAAAAAAAAAAAAAAAAAAAAAAAAAAAAAAAAAAAAAAAAAAAAAAAAAAAAAAAAAAAAAAAAAAAAAAAAAAAAAAAAAAAAAAAAAAAAAAAAAAAAAAAAAAAAAAAAAAAAAAAAAAAAAAAAAAAAAAAAAAAAAAAAAAAAAAAAAAAAAAAAAAAAAAAAAAAAAAAAAAAAAAAAAAAAAAAAAAAAAAAAAAAAAAAAAAAAAAAAAAAAAAAAAAAAAAAAAAAAAAAAAAAAAAAAAAAAAAAAAAAAAAAAAAAAAAAAAAAAAAAAAAAAAAAAAAAAAAAAAAAAAAAAAAAAAAAAAAAAAAAAAAAAAAAAAAAAAAAAAAAAAAAAAAAAAAAAAAAAAAAAAAAAAAAAAAAAAAAAAAAAAAAAAAAAAAAAAAAAAAAAAAAAAAAAAAAAAAAAAAAAAAAAAAAAAAAAAAAAAAAAAAAAAAAAAAAAAAAAAAAAAAAAAAAAAAAAAAAAAAAAAAAAAAAAAAAAAAAAAAAAAAAAAAAAAAAAAAAAAAAAAAAAAAAAAAAAAAAAAAAAAAAAAAAAAAAAAAAAAAAAAAAAAAAAAAAAAAAAAAAAAAAAAAAAAAAAAAAAAAAAAAAAAAAAAAAAAAAAAAAAAAAAAAAAAAAAAAAAAAAAAAAAAAAAAAAAAAAAAAAAAAAAAAAAAAAAAAAAAAAAAAAAAAAAAAAAAAAAAAAAAAAAAAAAAAAAAAAAAAAAAAAAAAAAAAAAAAAAAAAAAAAAAAAAAAAAAAAAAAAAAAAAAAAAAAAAAAAAAAAAAAAAAAAAAAAAAAAAAAAAAAAAAAAAAAAAAAAAAAAAAAAAAAAAAAAAAAAAAAAAAAAAAAAAAAAAAAAAAAAAAAAAAAAAAAAAAAAAAAAAAAAAAAAAAAAAAAAAAAAAAAAAAAAAAAAAAAAAAAAAAAAAAAAAAAAAAAAAAAAAAAAAAAAAAAAAAAAAAAAAAAAAAAAAAAAAAAAAAAAAAAAAAAAAAAAAAAAAAAAAAAAAAAAAAAAAAAAAAAAAAAAAAAAAAAAAAAAAAAAAAAAAAAAAAAAAAAAAAAAAAAAAAAAAAAAAAAAAAAAAAAAAAAAAAAAAAAAAAAAAAAAAAAAAAAAAAAAAAAAAAAAAAAAAAAAAAAAAAAAAAAAAAAAAAAAAAAAAAAAAAAAAAAAAAAAAAAAAAAAAAAAAAAAAAAAAAAAAAAAAAAAAAAAAAAAAAAAAAAAAAAAAAAAAAAAAAAAAAAAAAAAAAAAAAAAAAAAAAAAAAAAAAAAAAAAAAAAAAAAAAAAAAAAAAAAAAAAAAAAAAAAAAAAAAAAAAAAAAAAAAAAAAAAAAAAAAAAAAAAAAAAAAAAAAAAAAAAAAAAAAAAAAAAAAAAAAAAAAAAAAAAAAAAAAAAAAAAAAAAAAAAAAAAAAAAAAAAAAAAAAAAAAAAAAAAAAAAAAAAAAAAAAAAAAAAAAAAAAAAAAAAAAAAAAAAAAAAAAAAAAAAAAAAAAAAAAAAAAAAAAAAAAAAAAAAAAAAAAAAAAAAAAAAAAAAAAAAAAAAAAAAAAAAAAAAAAAAAAAAAAAAAAAAAAAAAPZYQFDWkCAFv6kgq9fj6bjg0wp/8TIViwguClZa6rmZ2x5BhhgKg/Mo/lWsfYH31frTp74bxz0iGo+sHwpPiQmPBm4=</c2pa:manifest></metadata><title>Interac debit</title><path d="M100 95c0 2.75-2.25 5-5 5H5c-2.75 0-5-2.25-5-5V5c0-2.75 2.25-5 5-5h90c2.75 0 5 2.25 5 5v90z" fill="#EBAB1F"></path><path fill="#231F20" d="M23.906 57.566v-27.08l-3.254.908v27.085l3.254-.913z"></path><path d="M20 62.445c0 .75.816 1.382 1.628 1.275l3.143-.818v-4.065l-4.766 1.335L20 62.445z" fill="#231F20"></path><path d="M20 67.432c0 .75.816 1.379 1.628 1.272l3.143-.82V63.82l-4.766 1.336L20 67.432z" fill="#231F20"></path><path d="M20 72.416c0 .748.816 1.379 1.628 1.273l3.143-.83v-4.055l-4.766 1.336L20 72.416z" fill="#231F20"></path><path d="M35.035 53.734c-.216.484-.657.902-1.165 1.041l-1.733.496.008 8.427c0 .239-.197.44-.441.44a.444.444 0 0 1-.44-.44l.007-12.188a2.605 2.605 0 0 0-2.599-2.605h-.434a2.606 2.606 0 0 0-2.602 2.605v25.344c0 1.951 1.734 3.688 3.035 4.658l1.298 1.086h10.613V62.227s0-.861-.211-1.404c-.216-.537-.653-.973-.653-.973l-4.683-6.116z" fill="#231F20"></path><path d="M29.104 37.696s1.383-1.483 2.762-1.794c3.139-.695 3.304 2.386 3.304 2.386v7.762l-3.033.855v-6.989s.154-1.509-.918-1.349c-1.845.268-2.114 1.841-2.114 1.841v7.38l-3.035.846V37.807l3.035-.855-.001.744z" fill="#231F20"></path><path d="M35.818 37.15v-2.053l1.303-.375V32.12l3.034-.855v2.639l2.272-.661v2.063l-2.272.654v5.489s.014.501.196.661c.373.308.989.026.989.026l1.06-.41v1.956s-1.709.949-2.626 1.107c-.61.11-1.248.055-1.95-.378-.703-.435-.703-1.46-.703-1.46V36.77l-1.303.38z" fill="#231F20"></path><path d="M52.119 37.097v1.225c0 1.862-.918 3.274-2.594 3.709l-2.387.731c-1.787.398-3.79-.516-3.79-2.412v-5.093c0-1.435 1.166-2.925 2.598-3.332l3.579-1c1.43-.397 2.594 1.095 2.594 2.524v2.618l-5.855 1.681v1.716a.925.925 0 0 0 1.212.825l1.1-.3c.54-.169.63-.791.63-1.139v-.941l2.913-.812zm-2.914-2.053v-.795c0-.55-.576-.861-.98-.736l-.992.281c-.607.181-.969.867-.969 1.218v.847l2.941-.815z" fill="#231F20"></path><path d="M56.4 33.309v6.405l-3.032.794V29.947l2.856-.803.15.455a4.988 4.988 0 0 1 2.948-1.483v2.753c-.164-.029-.263-.052-.431-.052a2.493 2.493 0 0 0-2.491 2.492z" fill="#231F20"></path><path d="M78.34 29.449c0 2.883-.925 4.023-2.605 4.456l-2.379.729c-1.791.411-3.793.141-3.793-2.244v-4.492c0-1.898.543-3.145 2.603-3.877l2.702-.748c2.413-.457 3.474.825 3.197 3.188l-2.646.729v-.68c0-.351-.087-.958-.955-.806l-1.101.317c-.729.26-.889.964-.889 1.31v4.002c0 .788.649 1.229 1.756 1.02l.395-.117c1.018-.377.904-1.672.904-2.022l2.811-.765z" fill="#231F20"></path><path d="M61.926 38.022c-.863-.092-2.49-.383-2.49-2.978 0-2.598 2.269-3.256 4.112-3.959 1.841-.703 1.681-1.296 1.681-1.894 0-.337-.293-.841-1.356-.491-1.339.45-1.291 1.344-1.291 1.344v.574l-2.714.756v-1.246s-.108-2.505 3.085-3.325c2.706-.681 2.821-.76 3.521-.592 2.008.49 1.734 2.564 1.734 2.564v7.39l-2.922.855v-.354c-.001.001-1.79 1.517-3.36 1.356zm3.359-5.475s-3.113.793-2.63 2.344c.271.866 1.415.504 1.909.138.731-.548.721-1.193.721-1.193v-1.289z" fill="#231F20"></path><path d="M77.38 20.198v-2.109h.937c.188 0 .33.014.43.051a.42.42 0 0 1 .23.204.54.54 0 0 1 .086.317.509.509 0 0 1-.142.376c-.101.102-.245.166-.448.194.069.035.129.065.168.109.078.072.159.167.235.275l.36.582h-.346l-.281-.444a2.527 2.527 0 0 0-.204-.29.518.518 0 0 0-.142-.143.32.32 0 0 0-.128-.054c-.03-.007-.081-.007-.153-.007h-.322v.938l-.28.001zm.28-1.181h.599a.957.957 0 0 0 .3-.04.285.285 0 0 0 .16-.128.329.329 0 0 0 .059-.188.327.327 0 0 0-.104-.25c-.073-.062-.188-.101-.344-.101h-.67v.707z" fill="#231F20"></path><path d="M78.18 17.404c.498 0 .954.206 1.282.539.335.323.538.782.538 1.284 0 .499-.203.956-.538 1.289a1.822 1.822 0 0 1-1.282.537c-.504 0-.965-.209-1.293-.537a1.845 1.845 0 0 1-.531-1.289c0-.501.205-.961.531-1.283a1.81 1.81 0 0 1 1.293-.54zm1.133.693a1.61 1.61 0 0 0-1.133-.479c-.445 0-.845.19-1.137.479-.295.29-.473.688-.473 1.13 0 .445.178.847.473 1.136a1.61 1.61 0 0 0 1.137.471c.441 0 .842-.182 1.133-.471.291-.289.474-.69.474-1.136a1.597 1.597 0 0 0-.474-1.13z" fill="#231F20"></path></svg>